<?xml version="1.0" standalone="no"?>
<!DOCTYPE svg PUBLIC "-//W3C//DTD SVG 20010904//EN"
 "http://www.w3.org/TR/2001/REC-SVG-20010904/DTD/svg10.dtd">
<svg version="1.0" xmlns="http://www.w3.org/2000/svg"
 width="32.000000pt" height="32.000000pt" viewBox="0 0 32.000000 32.000000"
 preserveAspectRatio="xMidYMid meet">

<g transform="translate(0.000000,32.000000) scale(0.100000,-0.100000)"
fill="#000000" stroke="none">
<path d="M37 313 c-28 -7 -37 -46 -37 -164 0 -149 -1 -149 164 -149 100 0 128
3 140 16 13 12 16 40 16 140 0 165 1 164 -152 163 -62 -1 -121 -3 -131 -6z
m141 -56 c3 -17 -1 -18 -42 -12 -42 7 -46 6 -46 -14 0 -17 6 -21 35 -21 29 0
35 -4 35 -21 0 -19 -4 -20 -40 -14 l-40 7 0 -36 c0 -30 -4 -36 -21 -36 -20 0
-21 4 -15 58 15 126 10 118 74 112 45 -4 58 -9 60 -23z m20 -112 c-3 -14 -1
-25 6 -25 6 0 21 -3 34 -6 19 -5 22 -2 22 20 0 17 5 26 16 26 13 0 15 -7 10
-31 -3 -17 -6 -47 -6 -65 0 -24 -5 -34 -15 -34 -10 0 -15 10 -15 30 0 27 -3
30 -30 30 -25 0 -30 -4 -30 -25 0 -16 -6 -25 -15 -25 -16 0 -19 29 -9 93 4 23
12 37 21 37 11 0 14 -7 11 -25z"/>
</g>
</svg>
